<svg fill="none" xmlns="http://www.w3.org/2000/svg" viewBox="0 0 628 510"><path d="m317.209 732.265-11.275-326.686 167.804 13.915 40.459 304.819c-21.225 12.723-59.03 11.044-78.928 8.614-8.622-38.433-27.193-147.77-37.806-221.987-3.316 104.036-4.642 130.542-7.295 221.987-31.306 11.133-63.01 2.872-72.959-.662Z" fill="#FF8A56"></path><path d="M456.98 371.781c-52.568-5.843-4.471-64.75 15.743-79.333l29.887 25.667c.467 5.133-9.628 19.833-25.222 28 35.568 7 11.079 29.166-20.408 25.666Z" fill="#F3AA76"></path><path d="M134.925 729.907c-8.899-86.035-10.659-283.687-2.024-348.755l176.632 19.928 7.971 330.649c-21.255 9.96-56.573 4.372-72.098-.561-6.118-23.68-17.38-150.626-22.246-211.14-5.562 11.84-15.241 147.392-19.412 209.879-12.792 10.261-51.212 4.275-68.823 0Z" fill="#2C64D8"></path><path d="M6.752 349.03c25.416-64.393 116.489-150.357 167.85-172.976a598.03 598.03 0 0 1 257.713-33.799l12.008 1.067c8.357 1.286 70.321 4.628 153.626 46.281 83.305 41.652-25.904 118.259-93.847 142.698l-6.427 5.785c-15.427-8.228-30.854-32.782-34.711-41.781l6.428-5.785c1.286-14.784 26.569-32.782 37.924-43.709l-51.23 10.941c-18.19 50.123 29.376 141.399 19.284 158.768a9.803 9.803 0 0 1 2.638 7.585l-.067.771c-154.461 31.483-290.732 22.484-354.818 8.999a7.945 7.945 0 0 1 1.752-6.867l.176-.204c0-18.654 3.022-27.653 7.521-38.581-41.055 16.66-69.672 22.03-89.674 21.589-30.097-.663-47.199-32.779-36.146-60.782Z" fill="#FED337"></path><path d="M240.016 242.677c-1.834-2.757-2.655-9.414-2.655-13.435l119.616-19.203c3.209 2.297 5.934 10.694 5.934 12.991L261.787 336.665c48.608 20.403 96.079-11.111 110.979-23.364 3.668.919 6.903 9.558 6.194 11.465-50.432 43.076-108.364 31.686-131.643 20.395-1.926-3.712-1.146-10.978 0-13.85l91.465-104.564-98.766 15.93Z" fill="#333"></path><circle cx="347.809" cy="277.724" r="9.558" fill="#333"></circle><circle cx="258.601" cy="283.033" r="9.558" fill="#333"></circle><path d="M505.838 247.668c10.713-11.356 38.181-35.482 62.35-41.138M127.24 426.79c95.132 19.284 221.761 16.712 341.319-8.999" stroke="#333" stroke-width="2.328" stroke-linecap="round"></path><path d="M293.191 401.374c17.653.047 58.204-1.918 79.185-10.151M272.273 416.72c11.342.706 38.235 1.378 55.07-1.585" stroke="#FEED5A" stroke-width="3.492" stroke-linecap="round"></path><path d="M180.075 298.382c-10.625 10.018-22.994 13.596-30.337 16.564l10.47 24.128 5.075 24.145c8.298-.745 26.437-3.238 32.605-7.247 6.167-4.01 5.254-27.302 3.499-33.558 9.209-5.968 26.52-14.493 28.84-23.241 2.717-10.251-35.618 7.495-53.396 18.956 14.082-10.653 14.548-30.406 3.244-19.747Z" fill="#A25B40"></path><path d="M36.607 349.013c33.425-18.641 53.994-25.711 104.132-32.487l8.356-3.214c6.428 9.642 14.141 28.282 15.427 51.423l-7.714 2.571c-8.999 9.347-12.213 13.204-26.997 21.212" stroke="#333" stroke-width="2.328" stroke-linecap="round"></path><path d="M140.738 317.168c6.428 8.999 12.213 28.925 14.784 43.067m313.632-68.782c5.357 7.927 18.641 26.097 28.926 35.353" stroke="#333" stroke-width="2.328" stroke-linecap="round"></path><path d="M251.139 112.247c3.705-1.402 6.682-3.798 8.479-6.592 1.796-2.793 2.449-6.06 1.308-9.074-1.141-3.014-3.792-5.03-6.987-5.935-3.196-.905-7.014-.73-10.718.672-3.705 1.401-6.682 3.798-8.479 6.591-1.796 2.794-2.449 6.06-1.308 9.074 1.14 3.014 3.792 5.031 6.987 5.935 3.196.905 7.013.73 10.718-.671Z" stroke="#FF8A56" stroke-width="2.328"></path><path d="M280.893 143.62c-36.385-2.552-83.299 17.176-101.335 28.23l151.698 17.355 97.152-43.885c-53.924-8.156-97.066-9.215-125.69-3.026-7.145 1.545-14.533 1.838-21.825 1.326Z" fill="#FED337"></path><path fill-rule="evenodd" clip-rule="evenodd" d="M210.209 58.015c.064.168.133.343.209.523l-.209-.523Zm45.084 67.211c.022-1.382.03-2.709.039-3.973.013-2.03.026-3.897.088-5.559 26.767-1.841 12.364-11.694-1.057-16.392-21.805-7.633-40.159-31.69-43.945-40.764l7.371 18.497-32.459 9.916-27.876 22.463-7.656 27.729 24.427 24.468a59.522 59.522 0 0 0 43.641 17.45c8.985-.229 18.147-2.754 23.946-9.62 7.383-8.741 10.709-18.645 12.221-27.934-41.398 2.141-42.023-15.048-29.903-13.653 14.504 1.669 24.681-.505 31.163-2.628Z" fill="#A25B40"></path><path d="M231.449 119.697c3.705-1.402 6.681-3.798 8.478-6.592 1.797-2.793 2.449-6.059 1.309-9.074-1.141-3.014-3.792-5.03-6.988-5.935-3.196-.904-7.013-.73-10.718.672-3.705 1.402-6.681 3.798-8.478 6.591-1.797 2.794-2.449 6.06-1.309 9.074 1.141 3.015 3.792 5.031 6.988 5.935 3.196.905 7.013.731 10.718-.671Z" stroke="#FF8A56" stroke-width="2.328"></path><path d="M239.892 99.516c1.508-2.109 4.694-5.161 9.217-3.121m-36.798 18.044-15.014 6.306" stroke="#FF8A56" stroke-width="2.328" stroke-linecap="round" stroke-linejoin="round"></path><path d="M223.389 113.838c-5.238 1.519-2.693-7.84 6.146-10.837 1.506-.511 3.121.108 4.153 1.318 1.79 2.099 1.427 5.571-1.106 6.663-1.455.627-3.609 1.236-9.193 2.856Z" fill="#fff"></path><ellipse cx="230.995" cy="107.859" rx="4.01" ry="3.509" transform="rotate(-20.725 230.995 107.859)" fill="#333"></ellipse><path d="M202.407 130.563c7.205-5.619-7.386-31.17-10.463-41.32 41.502-3.691 54.656-41.235 34.216-38.933-11.818 1.332-21.912 4.976-29.345 3.306-34.712-10.476-49.034 9.554-57.308 23.226-25.635 13-15.954 40.592-8.847 52.825-8.987 24.951 11.841 33.427 25.912 34.621 4.042 13.337 21.279 18.292 31.526 14.849 8.199-2.754 7.656-23.279-3.487-35.563-20.102-8.626-12.27-23.953-1.108-23.533 3.475 5.339 14.48 13.972 18.904 10.522Z" fill="#4E2A1A"></path><path fill-rule="evenodd" clip-rule="evenodd" d="M333.665 136.649c7.487 11.923 19.043 24.12 33.824 27.678l6.706-.22a68.675 68.675 0 0 0 35.612-11.348l1.632-1.079 14.936-50.501-4.12-24.498-68.028-12.356 2.024-12.502-23.631 11.461c-4.842 17.75-15.488 29.89-22.464 37.845-5.26 5.999-8.433 9.617-5.454 11.464 2.656 1.648 4.972 1.522 14.259 1.016 1.479-.081 3.135-.171 4.997-.266.183 1.97.883 4.735 2.069 7.974 6.289-1.724 18.688-6.827 27.058-12.827 11.403-8.175 14.449 12.246-19.42 28.159Z" fill="#F3AA76"></path><path d="M340.951 97.255c5.261-1.276 2.855-7.768-10.101-5.978-1.662.23-2.935 1.55-3.245 3.198-.47 2.494 1.404 5.072 3.931 4.844 1.561-.141 3.583-.648 9.415-2.064Z" fill="#fff"></path><ellipse rx="3.552" ry="3.553" transform="scale(-1 1) rotate(9.09 -768.406 -2036.173)" fill="#333"></ellipse><path d="M371.607 86.735c-6.713-3.007-20.162-13.618-28.131-30.786-5.388-8.569 34.738-42.513 71.387-12.375 36.028 29.626 20.262 80.82 2.11 90.326-19.083-2.878-26.922-12.965-31.991-23.373 8.473-5.924 7.111-23.343-.725-28.726-6.269-4.307-11.045 1.495-12.65 4.934Z" fill="#AD563A"></path><path d="M309.912 61.29c9.891-3.832 18.378-22.285 45.987-22.447l-7.074 15.85 4.494 21.74c-13.408 2.637-41.605-8.415-43.407-15.143Zm155.785-9.152c26.458 17.404-18.268 47.346-37.545 33.508-14.976-8.563-11.589-8.163-15.745-20.186-5.195-15.028 10.025-45.451 31.893-36.737 12.833 5.114 4.181 12.09 21.397 23.415Z" fill="#AD563A"></path></svg>