<svg xmlns="http://www.w3.org/2000/svg" id="Layer_1" x="0" y="0" version="1.1" viewBox="0 0 696 338" style="width:696px;height:338px;position:absolute;top:-338px;right:-230px;pointer-events:none"><style>.st0{fill:#333}.st5{fill:#fdb17f}.st6{fill:#5fc69b}</style><path d="M479.1 208.7c-8.9 5.8-29.7-8.4-46.5-31.7-16.8-23.3-23.1-46.8-14.2-52.6 8.9-5.8 29.7 8.4 46.5 31.7 16.8 23.3 23.1 46.8 14.2 52.6z" class="st0"></path><path d="M444.8 128.1c29.2 12.6 36.9 46.6 35.7 59.9-6.1 3.6-19.4 11-30.4 41.4-10.1 28-19.7 32.5-25.8 30.1 3.7 36.4 2.4 45.4-3.3 46.9-7.8 2.1-18.8-29.4-21-37.4-4.7 1.7-10.1-3.5-11.5-6.4-4.7 2.9-10.5 2.5-12-.1-6.2 2.8-12.5-3.2-16.1-8.9-33.2-53.4 41.7-105.3 84.4-125.5z" style="fill:#e67c40"></path><path d="M424.3 259.7c-2.6-15.1-6.4-47.4-1.4-59.4" style="fill:none;stroke:#333;stroke-width:1.0418;stroke-linecap:round;stroke-linejoin:round"></path><path d="M429.2 204.7c-4.1 15.4-6.3 28.5-7.2 39.4-2.1-10.3-1.7-35.2-.2-42 2-8.4 9.5-5.3 7.4 2.6zM376.5 263.3c-.2 0-.3-.1-.4-.2-4.7-6.9-17-25.3-10.1-48.4.1-.3.4-.4.6-.3.3.1.4.4.3.6-6.7 22.6 5.4 40.7 10 47.5.2.2.1.6-.1.7-.1.1-.2.1-.3.1zM388.3 263.2c-.2 0-.3-.1-.4-.2-8.5-11.4-12.9-37.5-8.6-51.8.1-.3.4-.4.6-.4.3.1.4.4.4.6-4.2 14 .1 39.7 8.5 50.8.2.2.1.6-.1.7-.2.3-.3.3-.4.3zM400.2 270.4c-.2 0-.4-.1-.5-.4-5.8-16.9-10.4-46.5-7.6-62 .1-.3.3-.5.6-.4.3.1.5.3.4.6-2.7 15.3 1.8 44.7 7.6 61.4.1.3-.1.6-.3.7-.1.1-.2.1-.2.1z" class="st0"></path><path d="M596.8 144.5c14.8-9.4 35.2-24.3 35.2-66.3s-27.4-63.3-34.4-59.6C590.5 22.2 439.1 101 416.9 126c0 0 66.7 40.7 63.3 82.2 0-.1 101.8-54.4 116.6-63.7z" style="fill:#fed337"></path><path d="m313.7 181-81.8-27.2c-3-1-6.1.7-7.1 3.6l-15.5 48.1c-1 3 .6 6.2 3.6 7.2l81.8 27.2c3 1 6.1-.7 7.1-3.6l15.5-48.1c1-3-.6-6.3-3.6-7.2z" style="fill:#fff;stroke:#dedede;stroke-width:1.4792"></path><path d="M174.2 266.3s38.2-14.8 56.2-36.9c1.2-1.4 1.8-3.2 1.9-5 .1-1.8-.4-3.7-1.4-5.2-1-1.5-2.4-2.7-4.1-3.3-1.7-.6-3.5-.7-5.2-.2-11.8 3.7-37.4 8.4-33.3-21.8 4-29.5 32.8-38.1 46.6-40.6 2.1-.4 4-1.5 5.4-3.1 1.4-1.6 2.2-3.7 2.3-5.8v-.3c.1-1.4-.2-2.7-.7-4-.5-1.3-1.3-2.4-2.3-3.3-1-.9-2.2-1.6-3.4-2.1-1.3-.4-2.6-.6-4-.4-11.4 1.4-29 5.2-38.8 15.8l19.1-35.1c.6-1.2 1-2.4 1.2-3.8.1-1.3 0-2.7-.4-3.9-.4-1.3-1-2.4-1.9-3.4-.9-1-1.9-1.8-3.1-2.4-2.3-1.1-4.9-1.3-7.2-.5-2.4.8-4.4 2.5-5.5 4.8-5.2 10.3-14.1 28.6-21.9 47.9 0 0 5-20.7 11.6-42.8.4-1.2.5-2.5.3-3.8-.2-1.3-.6-2.5-1.2-3.6-.7-1.1-1.5-2-2.6-2.8-1-.7-2.2-1.2-3.5-1.4-2.3-.4-4.7.1-6.6 1.4-1.9 1.3-3.3 3.4-3.8 5.7-2 9.7-5.5 26.4-9.5 43.4l-6.5-27.9c-.6-2.4-2-4.5-4-5.9s-4.5-1.9-6.9-1.5c-2.4.4-4.6 1.7-6.1 3.7s-2.2 4.4-1.9 6.9c2.3 23.4 5.9 84.8-17.7 100.1l58.9 41.1z" class="st5"></path><path d="M196.7 271.1c3.3-4.3-11.4-21.5-32.8-38.4s-41.5-27.1-44.8-22.8 11.4 21.5 32.8 38.4c21.5 16.9 41.5 27.1 44.8 22.8z" class="st0"></path><path d="m244.8 177.3-6.5-2.2c-.4-.1-.8.1-1 .5l-6.9 21.3c-.1.4.1.8.5 1l6.5 2.2c.4.1.8-.1 1-.5l6.9-21.3c.1-.4-.1-.9-.5-1z" class="st6"></path><path d="m249.7 187.1-21-7c-.4-.1-.8.1-1 .5l-2.1 6.6c-.1.4.1.8.5 1l21 7c.4.1.8-.1 1-.5l2.1-6.6c.1-.4-.1-.9-.5-1z" class="st6"></path><path d="M127.1 210c-1.3 3.2-3 6.2-5.1 8.9 5.2 7.6 16.2 18.6 29.9 29.4 7.8 6.3 16.1 11.9 24.8 17 2.9-1.2 8.2-3.5 14.4-6.8-5.8-7.3-12.5-22.1-24.2-31.3-14.4-11.5-31.3-14.3-39.8-17.2z" class="st5"></path><path d="M257.4 187.1c-.2-.1-.3-.3-.3-.5-.1-.2 0-.4.1-.6.1-.2.2-.3.4-.4.2-.1.4-.1.6 0 16.2 5.3 29.8 9.7 42.6 13.7.1 0 .2.1.3.2.1.1.2.2.2.3s.1.2.1.3v.3c0 .1-.1.2-.2.3-.1.1-.2.2-.3.2-.1.1-.2.1-.3.1h-.3c-12.8-4-26.3-8.4-42.6-13.7-.2-.1-.3-.1-.3-.2zM255.3 194.1c-.2-.1-.3-.3-.3-.5-.1-.2 0-.4.1-.6.1-.2.2-.3.4-.4.2-.1.4-.1.6 0 16.2 5.3 29.7 9.7 42.6 13.7.1 0 .2.1.3.2.1.1.2.2.2.3.1.1.1.2.1.3v.3c0 .1-.1.2-.2.3-.1.1-.2.2-.3.2-.1.1-.2.1-.3.1h-.3c-12.8-4-26.4-8.4-42.6-13.7-.2-.1-.2-.1-.3-.2zM253.2 201.1c-.2-.1-.3-.3-.3-.5-.1-.2 0-.4.1-.6.1-.2.2-.3.4-.4s.4-.1.6 0c5.4 1.8 10.8 3.5 16.2 5.3.2.1.4.2.5.4.1.2.1.4.1.7-.1.2-.2.4-.4.5-.2.1-.4.1-.7.1-5.4-1.7-10.8-3.5-16.2-5.3-.1-.1-.2-.1-.3-.2z" class="st0"></path><path d="M150.9 338c24-35.6 45.4-66.5 45.4-66.5-35.3-3.1-76.2-62.3-76.2-62.3-14.5 9.1-76 87.9-107.4 128.8h138.2z" class="st6"></path></svg>