<svg xmlns="http://www.w3.org/2000/svg" xmlns:xlink="http://www.w3.org/1999/xlink" width="160" height="160" fill="none"><path fill="#ff8a56" d="M65.053 67.975C52.912 63.7 52.228 53.782 52.228 53.782l11.628-10.944 28.728 10.944V67.12l-1.71 17.784c-13.452 2.622-36.223 9.029-37.475 9.576s-13.312-14.193-3.394-16.587c0 0 27.189-5.643 15.048-9.918z"/><g fill="#333"><path fill-rule="evenodd" d="M130.428 70.489c.553 2.508-1.038 5.265-3.808 7.133 2.71 1.955 4.213 4.761 3.581 7.251-.877 3.453-5.528 4.99-10.389 3.434-3.601-1.153-6.307-3.681-7.11-6.318l-6.846-.109.134-8.425 6.656.106c.568-2.88 3.528-5.698 7.508-6.834 4.908-1.401 9.508.283 10.274 3.762zm-4.639 1.764a3.01 3.01 0 0 1-3.01 3.009 3.01 3.01 0 0 1-3.009-3.009 3.01 3.01 0 0 1 3.009-3.009 3.01 3.01 0 0 1 3.01 3.009zm-3.01 13.241a3.01 3.01 0 0 0 3.01-3.009 3.01 3.01 0 0 0-3.01-3.009 3.01 3.01 0 0 0-3.009 3.009 3.01 3.01 0 0 0 3.009 3.009z"/><path d="M83.827 87.916a1.37 1.37 0 0 0-1.353-1.382 1.37 1.37 0 0 0-1.383 1.353l-.014 11.581.014 5.759c0 .129-.018.268-.054.518l-.015.106a37.74 37.74 0 0 0-.978.056l-.023.001-1.51.066h-1.822c-.138 0-.265-.018-.484-.048l-.246-.033c-.319-.042-.8-.096-1.316-.005-.489.087-1.012.074-1.706.049l-.056-.002c-.633-.023-1.424-.051-2.218.09-.506.09-1.011.135-1.548.171l-.404.026-1.271.098c-1.179.123-2.457.395-3.746 1.251l-.072.048c-.375.248-1.244.822-1.909 1.497-.346.351-.767.855-.967 1.473a2.25 2.25 0 0 0-.071 1.158c.092.438.315.812.614 1.111.409.408.92.642 1.372.787a7.18 7.18 0 0 0 1.461.284l.037.003a3.15 3.15 0 0 0-.197.352c-.256.539-.363 1.225-.32 1.843.039.571.241 1.499 1.053 2.06.67.463 1.383.573 1.962.578l.032.195c.093.44.317.814.618 1.112.41.407.923.641 1.376.785.466.148.973.234 1.466.283l.041.004c-.071.11-.137.226-.195.347-.258.54-.365 1.227-.322 1.846.04.574.243 1.502 1.059 2.061 1.018.699 2.134.59 2.732.532l.233-.02a4.91 4.91 0 0 0 .276-.023 4.15 4.15 0 0 0-.002.132c0 1.418.715 2.548 1.824 3.137 1.059.562 2.346.568 3.498.111 1.846-.732 3.009-2.31 3.889-3.504l.02-.027c.352-.478 1.128-1.161 1.721-1.575l.823-.52c.188-.092.404-.17.789-.254 1.537-.339 3.175-.348 4.949-.348a1.37 1.37 0 0 0 1.368-1.368 1.37 1.37 0 0 0-1.368-1.368h-.016c-1.722 0-3.652 0-5.523.412a5.999 5.999 0 0 0-1.404.469c-.415.204-.788.456-1.185.733-.713.498-1.757 1.38-2.358 2.196-.955 1.296-1.695 2.206-2.715 2.611-.522.207-.959.147-1.207.015-.198-.105-.371-.295-.371-.72 0-.442.221-.877.733-1.639l.051-.073.604-.506.011-.01c.09-.079.163-.165.182-.187l.002-.003a5.02 5.02 0 0 0 .104-.128l.221-.292a6.49 6.49 0 0 0 .221-.32 2.58 2.58 0 0 0 .115-.195 1.64 1.64 0 0 0 .08-.175l.001-.003c.017-.045.097-.248.097-.513v-.004c0-.103.001-.753-.591-1.18-.677-.488-1.357-.167-1.467-.113a1.78 1.78 0 0 0-.402.278 2.958 2.958 0 0 0-.21.211c-.216.24-.434.546-.545.717a4.12 4.12 0 0 1-.285.371l-.038.046c-.856.545-1.411.842-2.046.877a16.62 16.62 0 0 0-.428.031l-.157.012a3.33 3.33 0 0 1-.373.012.78.78 0 0 1-.18-.026.98.98 0 0 1-.006-.059 1.316 1.316 0 0 1 .044-.428l.012-.037.005-.012c.024-.05.111-.177.306-.347a3.11 3.11 0 0 1 .583-.4l.653-.381.012-.008.504-.297c.223-.118.398-.263.503-.354l.014-.012.314-.066a3.44 3.44 0 0 0 .39-.113c.051-.019.189-.071.334-.166a1.41 1.41 0 0 0 .38-.367 1.38 1.38 0 0 0 .161-1.287 1.382 1.382 0 0 0-.657-.733 1.452 1.452 0 0 0-.344-.126 1.791 1.791 0 0 0-.315-.042 4.598 4.598 0 0 0-.452.006 2.066 2.066 0 0 0-.958.309 20.18 20.18 0 0 1-.991.111c-.828.07-1.727.094-2.482.019-.31-.03-.57-.075-.777-.13l.034-.035c.458-.462 1.111-.893 1.507-1.154l.051-.033c.783-.518 1.578-.711 2.536-.811l1.114-.084.47-.03 1.849-.207c.488-.086 1.014-.073 1.712-.048l.051.002c.639.022 1.436.05 2.239-.091.076-.013.202-.014.491.023l.131.018c.243.035.611.086.957.086h1.832l1.679-.07.015-.001 1.51-.066h.016l.475-.018s.551-.075.905-.365c.393-.321.516-.733.56-.973a3.11 3.11 0 0 0 .04-.559c0-.128.018-.265.055-.516l.004-.027c.032-.22.079-.541.079-.886l-.014-5.792v-.001l.014-11.51a1.37 1.37 0 0 0-1.353-1.383 1.37 1.37 0 0 0-1.383 1.353l-.014 11.576.014 5.756c0 .128-.018.266-.055.516l-.016.107-.99.055-.023.001a23.59 23.59 0 0 1-1.519.066h-1.832c-.139 0-.269-.018-.49-.048h-.001l-.245-.033c-.321-.041-.803-.096-1.319-.005-.493.087-1.021.074-1.718.049l-.056-.001c-.637-.023-1.43-.051-2.227.089-.509.09-1.018.135-1.558.172l-.406.026-1.277.097c-1.184.123-2.467.394-3.761 1.249l-.073.048c-.323.212-1.011.664-1.622 1.214a1.365 1.365 0 0 0-.528-.075l-.426.031-.155.012a3.27 3.27 0 0 1-.37.012.723.723 0 0 1-.172-.024 1.05 1.05 0 0 1-.006-.061 1.34 1.34 0 0 1 .016-.307.902.902 0 0 1 .028-.124l.012-.037.005-.013c.024-.05.11-.177.304-.347a3.14 3.14 0 0 1 .579-.399l.651-.382.011-.007.501-.298a2.66 2.66 0 0 0 .501-.354l.013-.011.31-.066a3.27 3.27 0 0 0 .389-.113c.052-.019.189-.071.334-.167a1.41 1.41 0 0 0 .379-.369 1.377 1.377 0 0 0-.496-2.015 1.487 1.487 0 0 0-.345-.127 1.8 1.8 0 0 0-.315-.042 4.575 4.575 0 0 0-.451.006 2.058 2.058 0 0 0-.957.31l-.982.11c-.823.07-1.716.094-2.466.019a4.86 4.86 0 0 1-.771-.13l.038-.039c.455-.461 1.104-.892 1.497-1.154l.051-.033c.777-.517 1.565-.709 2.516-.809l1.107-.085.468-.03 1.841-.207c.484-.086 1.005-.072 1.7-.048l.051.002c.635.023 1.43.051 2.23-.091.073-.013.196-.014.484.024l.13.018c.242.034.608.086.955.086h1.822l1.671-.071.015-.001 1.501-.065h.016l.475-.019s.552-.075.906-.367c.391-.322.513-.734.557-.972a3.12 3.12 0 0 0 .04-.558c0-.128.018-.267.054-.517l.004-.027c.032-.22.079-.541.079-.886l-.014-5.795.014-11.516z"/></g><path fill="#fed337" d="M67.554 30.934a6.02 6.02 0 0 0-8.304 1.867l-5.472 8.645a6.02 6.02 0 0 0 1.867 8.304L97.12 76.001l-47.807 5.65a6.02 6.02 0 0 0-5.271 6.683l.846 7.154a6.02 6.02 0 0 0 6.683 5.27l51.614-6.1a6.02 6.02 0 0 0 5.27-6.683l-.845-7.154a5.992 5.992 0 0 0-1.814-3.64 6.004 6.004 0 0 0 1.683-1.747l5.471-8.646a6.02 6.02 0 0 0-1.866-8.304l-43.53-27.551z"/><g fill="#fdfaee"><use xlink:href="#a"/><use xlink:href="#a" x="10.429" y="6.016"/><path d="M82.681 64.838c-1.85 3.091-5.613 4.267-8.461 2.624-2.879-1.661-3.732-5.575-1.905-8.742s5.642-4.388 8.522-2.727c2.848 1.643 3.713 5.491 1.963 8.64 1.85-3.091 5.613-4.267 8.461-2.624 2.879 1.661 3.732 5.575 1.905 8.742a7.211 7.211 0 0 1-.661.96 7.09 7.09 0 0 1 1.181 3.353c.325 3.642-2.095 6.834-5.406 7.129s-6.258-2.417-6.583-6.059c-.147-1.646.267-3.201 1.071-4.437-1.249-1.912-1.358-4.57-.086-6.859z"/><use xlink:href="#b"/><path d="M52.311 86.494c3.311-.295 5.731-3.487 5.406-7.129s-3.273-6.355-6.583-6.059-5.731 3.487-5.406 7.129S49 86.79 52.311 86.494z"/><use xlink:href="#b" x="12.1" y="-1.07"/></g><defs><path id="a" d="M53.363 55.432c2.879 1.661 6.694.44 8.522-2.727s.974-7.081-1.905-8.742-6.695-.44-8.522 2.727-.974 7.081 1.905 8.742z"/><path id="b" d="M69.595 77.205c.325 3.642-2.095 6.834-5.406 7.129s-6.258-2.417-6.583-6.059 2.095-6.834 5.406-7.129 6.258 2.417 6.583 6.059z"/></defs></svg>