<svg xmlns="http://www.w3.org/2000/svg" width="160" height="160" fill="none"><path fill="#FDFAEE" d="M69.693 45.194c-1.021.758-2.063 1.514-3.083 2.118-7.836 4.642-13.028 12.594-13.028 21.66 0 .731-.573 1.328-1.295 1.366v7.598a4.219 4.219 0 0 1 1.61 2.08c3.273 9.017 13.04 15.562 24.579 15.562 11.54 0 21.306-6.544 24.578-15.563.481-1.325 1.581-2.368 2.927-2.615v-7.06h-.01a1.368 1.368 0 0 1-1.368-1.368c0-9.066-5.192-17.018-13.027-21.66-1.02-.604-2.062-1.36-3.083-2.117l-.501-.373c-.869-.646-1.73-1.287-2.61-1.88-2.13-1.435-4.108-2.403-6.003-2.403-.098 0-.194-.01-.286-.03-.093.02-.189.03-.287.03-1.894 0-3.873.968-6.001 2.403-.881.593-1.743 1.234-2.611 1.88l-.006.005-.495.367ZM124.527 99.26a5.13 5.13 0 1 1-10.246.527 5.13 5.13 0 0 1 10.246-.527ZM105.534 109.484a5.13 5.13 0 1 0-.529-10.247 5.13 5.13 0 0 0 .529 10.247ZM119.696 111.837a3.763 3.763 0 0 1-7.515.387 3.762 3.762 0 0 1 7.515-.387Z"/><path fill="#FED337" fill-rule="evenodd" d="M50.358 77.345c1.62 0 2.987 1.148 3.54 2.67 3.272 9.019 13.038 15.563 24.578 15.563s21.306-6.544 24.579-15.563c.552-1.522 1.92-2.67 3.539-2.67h21.618a3.42 3.42 0 0 1 3.42 3.42v39.241a3.42 3.42 0 0 1-3.42 3.42H32.42a3.42 3.42 0 0 1-3.42-3.42V80.765a3.42 3.42 0 0 1 3.42-3.42h17.938Zm74.17 21.915a5.13 5.13 0 1 1-10.247.526 5.13 5.13 0 0 1 10.247-.526Zm-18.994 10.224a5.13 5.13 0 1 0-.529-10.247 5.13 5.13 0 0 0 .529 10.247Zm14.162 2.353a3.762 3.762 0 1 1-7.514.388 3.762 3.762 0 0 1 7.514-.388Z" clip-rule="evenodd"/><path fill="#FF8A56" d="M96.861 25.218a1.368 1.368 0 0 1 2.72.3l-1.313 11.908a1.368 1.368 0 1 1-2.72-.3l1.313-11.908ZM111.083 29.827c.611.444.746 1.3.302 1.91l-7.51 10.323a1.368 1.368 0 1 1-2.212-1.61l7.509-10.322a1.368 1.368 0 0 1 1.911-.301ZM120.211 42.373a1.367 1.367 0 1 0-1.1-2.505l-10.745 4.72a1.369 1.369 0 0 0 1.1 2.504l10.745-4.719Z"/><path fill="#FF8A56" fill-rule="evenodd" d="M81.467 47.971a4.788 4.788 0 0 0-4.55-.027l-7.1 3.778c-.411.22-.77.476-1.078.762-5.125 3.445-8.505 9.35-8.505 16.055 0 10.628 8.49 19.244 18.965 19.244 10.474 0 18.964-8.616 18.964-19.244 0-7.847-4.628-14.597-11.266-17.592l-5.43-2.976ZM80.37 50.72a2.052 2.052 0 0 0-2.236 0l-4.667 3.03c-1.713 1.114-.925 3.774 1.118 3.774h9.334c2.043 0 2.83-2.66 1.117-3.773l-4.666-3.031Z" clip-rule="evenodd"/><path fill="#333" d="M66.61 47.313c1.02-.605 2.062-1.361 3.083-2.118l.5-.372c.87-.647 1.73-1.288 2.612-1.881 2.128-1.435 4.106-2.403 6.001-2.403.099 0 .194-.01.287-.03.092.02.188.03.286.03 1.895 0 3.874.968 6.002 2.403.881.593 1.742 1.234 2.611 1.88l.5.373c1.022.757 2.064 1.513 3.084 2.117 7.835 4.642 13.027 12.594 13.027 21.66a1.368 1.368 0 0 0 2.736 0c0-10.17-5.827-18.954-14.369-24.013-.884-.524-1.823-1.202-2.848-1.962l-.484-.36a72.24 72.24 0 0 0-2.728-1.964c-2.201-1.484-4.766-2.87-7.53-2.87-.099 0-.195.01-.287.03a1.374 1.374 0 0 0-.287-.03c-2.765 0-5.33 1.386-7.53 2.87-.94.633-1.86 1.318-2.728 1.964l-.484.36c-1.025.76-1.965 1.438-2.849 1.962-8.541 5.06-14.369 13.843-14.369 24.013a1.368 1.368 0 1 0 2.736 0c0-9.066 5.192-17.018 13.028-21.66Z"/></svg>