<svg xmlns="http://www.w3.org/2000/svg" width="160" height="160" fill="none"><path fill="#FDFAEE" d="M119.195 94.223c-3.455-4.94-10.831-9.995-19.074-13.506l-.855-1.772c-.742-.228-1.5-.443-2.277-.642-1.645 2.441-3.557 4.611-5.706 6.255-5.057 1.415-16.47.023-24.703-4.658l-.058.194a73.751 73.751 0 0 0-10.967 5.911c-6.954 4.56-13.062 10.359-16.337 16.922-3.397 6.809-5.277 11.658-6.305 14.782a40.947 40.947 0 0 0-.984 3.421 17.237 17.237 0 0 0-.2.971l-.005.036v.003a1.361 1.361 0 0 1-.32.711h97.109a1.357 1.357 0 0 1-.333-.894c0-6.636-.792-16.019-8.985-27.734ZM29.333 122.851l-.01-.01-.002.01h.012ZM29.579 121.853l.789.104-.79-.104Z"/><path fill="#763D2A" d="M64.205 71.898c1.859 2.19 3.306 3.25 3.344 3.167 3.307-4.286 4.345-9.47 5.027-12.88l.065-.323c.073-.251.077-.517.011-.77a1.727 1.727 0 0 0-.49-.613c-2.6-2.478-3.68-9.008 1.253-9.798 4.57-.732 4.09 4.707 3.187 7.314a.645.645 0 0 0-.042.469c.067.114.17.206.294.262a8.53 8.53 0 0 0 3.451 1.053.72.72 0 0 0 .346-.03.69.69 0 0 0 .291-.316 19.351 19.351 0 0 0 2.75-8.156 14.046 14.046 0 0 0-1.425-5.288c-1.574-4.613 3.66-8.106 7.853-8.074 2.368.199 4.717.56 7.03 1.08 1.628 7.008 7.978 12.799 11.944 16.415 1.409 1.286 2.518 2.297 3.006 2.99 1.866 2.652-5.556 3.633-8.544 3.387-1.269 7.614-5.64 17.699-12.273 22.77-5.117 1.433-16.74-.01-24.992-4.823l-2.086-7.836Z"/><path fill="#FF8A56" d="m66.58 79.9-3.476 11.587c-.176.586.06 1.218.576 1.547l10.307 6.559c.626.398.82 1.222.439 1.858l-3.231 5.385a1.368 1.368 0 0 0 .22 1.685l14.939 14.506c1.006.977 2.656-.013 2.267-1.361L77.78 84.06c-3.827-.844-7.787-2.22-11.2-4.16ZM92.822 83.256l1.705 39.047c.066 1.503 2.156 1.815 2.657.396l7.028-19.896a1.37 1.37 0 0 0-.531-1.594l-3.703-2.468a1.368 1.368 0 0 1-.465-1.75l4.006-8.013c.19-.38.193-.825.009-1.206l-5.256-10.885c-.053-.11-.12-.21-.196-.298-1.497 2.51-3.257 4.813-5.254 6.667Z"/><path fill="#333" d="M100.121 80.717c8.243 3.511 15.619 8.566 19.074 13.506 8.194 11.716 8.985 21.098 8.985 27.734a1.368 1.368 0 0 0 2.736 0c0-7.001-.867-16.989-9.479-29.302-3.953-5.652-12.099-11.059-20.732-14.661a70.163 70.163 0 0 0-2.348-.931l1.764 3.654ZM66.522 80.094l.058-.194-.29-.166-.6-2.26a76.507 76.507 0 0 0-11.635 6.243C46.879 88.422 40.34 94.55 36.77 101.706c-3.448 6.911-5.382 11.883-6.456 15.149a43.73 43.73 0 0 0-1.049 3.651 19.664 19.664 0 0 0-.238 1.168 3.836 3.836 0 0 0-.01.07l-.003.021-.001.008v.003l-.001.001s0 .002 1.356.18l-1.356-.178a1.368 1.368 0 0 0 2.712.361v-.003l.006-.036.03-.177c.031-.167.084-.43.169-.794.17-.728.47-1.859.985-3.421 1.027-3.124 2.907-7.973 6.304-14.782 3.275-6.563 9.383-12.363 16.337-16.922a73.746 73.746 0 0 1 10.967-5.91Z"/><path fill="#FFBB95" d="M109.201 33.842c.091-.31.165-.622.224-.936a6.09 6.09 0 0 0-.221-3.486 6.282 6.282 0 0 0-2.239-2.4 6.66 6.66 0 0 0-3.196-1 27.425 27.425 0 0 0-6.774.583c-2.78.412-5.593.572-8.404.479-2.603-.092-5.132-.823-7.81-.796-4.667-.043-9.237 1.268-13.11 3.76a23.24 23.24 0 0 0-4.333 3.889c-4.311 4.88-7.735 11.142-7.257 17.515 1.19 15.883 11.366 23.839 11.468 23.615 3.414-4.424 4.409-9.805 5.091-13.203.074-.252.078-.517.012-.77a1.725 1.725 0 0 0-.49-.614c-2.6-2.477-3.68-9.007 1.253-9.797 4.57-.732 4.09 4.707 3.186 7.314a.645.645 0 0 0-.041.469c.067.114.17.206.294.262 1.055.59 2.234.95 3.451 1.053a.719.719 0 0 0 .346-.03.69.69 0 0 0 .291-.317 19.35 19.35 0 0 0 2.75-8.155 14.046 14.046 0 0 0-1.425-5.288c-1.574-4.613 3.66-8.106 7.853-8.074 2.738.23 5.451.676 8.112 1.335 2.694.654 5.549.273 7.954-1.062 1.496-1.075 2.561-2.61 3.015-4.346Z"/><path fill="#FED337" fill-rule="evenodd" d="M83.604 52.01c.034-.244.063-.488.088-.733a13.875 13.875 0 0 0-.056-.625l3.645-.112c.076-.308.184-.619.332-.927.71-1.483 2.256-2.763 5.002-3.42 1.927-.462 3.536.062 4.698.864a6.249 6.249 0 0 1 1.658 1.685c.442-.352.864-.599 1.337-.745.642-.198 1.312-.19 2.116-.132.444-.586 1.121-1.211 1.973-1.563 1.158-.479 2.573-.42 3.995.75 1.472 1.212 1.705 2.811 1.43 4.22-.264 1.355-.998 2.591-1.602 3.34l-.261-.238-.307-.286-.251-.23-.192-.174c.496-.634 1.068-1.636 1.27-2.673.207-1.06.027-2.093-.956-2.902-1.033-.85-1.913-.828-2.604-.543-.751.31-1.349.97-1.632 1.466a.684.684 0 0 1-1.024.194c-.747-.05-1.177-.037-1.551.078-.342.106-.692.316-1.208.78.216 1.407.168 2.971-.38 4.34-.605 1.508-1.807 2.742-3.804 3.224-3.999.963-6.762-1.414-7.81-4.003a5.184 5.184 0 0 1-.367-1.744l-3.539.109Zm14.508-1.963c.237 1.316.201 2.72-.258 3.868-.45 1.124-1.317 2.032-2.855 2.403-3.19.768-5.365-1.071-6.22-3.186-.314-.774-.43-1.89.067-2.928.487-1.015 1.624-2.091 4.087-2.68 1.49-.358 2.706.04 3.603.66.905.624 1.436 1.44 1.576 1.863Z" clip-rule="evenodd"/></svg>