<svg xmlns="http://www.w3.org/2000/svg" width="160" height="160" fill="none"><path fill="#542816" d="M105.917 31.674c-.497-2.674-2.775-4.962-5.511-5.532-2.746-.57-5.78.608-7.372 2.848-2.756-2.317-6.844-3.04-10.257-1.795-3.412 1.245-6.018 4.383-6.526 7.887-2.507-.454-5.203.25-7.123 1.873-1.92 1.622-3.024 4.112-2.905 6.584-2.218-.126-4.476.772-5.979 2.365-1.502 1.593-2.208 3.861-1.88 5.995.09.55.239 1.139.01 1.66-.209.483-.706.782-1.134 1.1-2.338 1.72-3.432 4.722-3.263 7.56.17 2.838 1.462 5.522 3.144 7.858.199.27.407.56.447.888.05.377-.129.744-.268 1.091-1.174 2.867-.338 6.323 1.79 8.611 2.13 2.288 5.412 3.418 8.586 3.292 2.188-.087 4.307-.733 6.466-1.1a26.654 26.654 0 0 1 11.74.618c2.228.637 4.784 1.525 6.714.28.916-.59 1.493-1.555 1.88-2.549.836-2.114.906-4.653-.447-6.487-.458-.618-1.045-1.13-1.492-1.748-1.015-1.4-1.204-3.224-2.179-4.653-.905-1.313-2.368-2.143-3.8-2.896-1.433-.753-2.925-1.506-3.93-2.751-1.005-1.246-1.383-3.128-.408-4.393 1.174-1.535 4.089-1.158 4.815.618.249.608.299 1.351.826 1.766.776.618 2.03-.028 2.397-.936.368-.907.18-1.921.12-2.896-.219-3.746 1.79-7.443 4.805-9.799 3.014-2.355 6.924-3.456 10.794-3.59 0 0 3.442.955 4.984-5.03.965-3.862-2.567-6.604-5.044-6.739Z"/><path fill="#FDFAEE" d="M94.628 80.797c.485.094.965.194 1.438.3.05.251.102.516.153.79a67.263 67.263 0 0 1 5.552 2.202 54.288 54.288 0 0 1 4.23 18.835c-.867.406-1.567 1.12-1.825 2.026-.397 1.424.316 3.057 1.646 3.797 1.333.732 3.169.498 4.256-.546 1.075-1.036 2.337-4.381-1.314-5.48a56.808 56.808 0 0 0-3.315-16.85c6.267 3.273 11.581 7.329 14.367 11.312 8.251 11.798 9.048 21.247 9.048 27.93 0 .355.135.679.357.922H31.379a1.36 1.36 0 0 0 .345-.742l.006-.036a16.914 16.914 0 0 1 .2-.979c.172-.734.475-1.872.992-3.445 1.035-3.146 2.928-8.029 6.349-14.885 3.298-6.61 9.45-12.451 16.452-17.043a74.072 74.072 0 0 1 9.244-5.141 12.231 12.231 0 0 0 2.709.196c1.106-.045 2.194-.231 3.278-.453.34.55.702 1.12 1.089 1.712 1.857 2.842 3.64 5.674 5.672 10.768-1.321.38-2.548 1.022-3.456 1.876-2.132 2.004-2.519 4.625-2.558 6.807-.082 4.138.85 8.276 1.736 12.193.064.282.21.522.409.702.1.694.362 1.374.758 1.999.342.545.95 1.108 1.665 1.033.415-.049.773-.322.968-.637.194-.316.254-.682.272-1.054a6.386 6.386 0 0 0-.418-2.771c-.061-.188-.15-.379-.352-.462-.133-.063-.289-.057-.431-.049l-.334.012c-.846-3.759-1.605-7.378-1.534-10.941v-.003c.035-1.962.388-3.628 1.687-4.85.632-.593 1.667-1.118 2.894-1.37 1.216-.25 2.501-.207 3.606.2h.002c.747.274 1.39.7 2.029 1.21 3.315 2.693 4.45 6.236 5.342 9.94.372 1.556.715 3.11 1.025 4.668-.392.191-.724.474-.87.835-.14.337-.115.704-.078 1.074.059.541.16 1.076.433 1.569.274.493.723.921 1.302 1.096.592.177 1.305.052 1.666-.382.212-.243.28-.564.332-.874a7.14 7.14 0 0 0 .082-.731c.198-.288.287-.65.222-1.018a121.886 121.886 0 0 0-1.449-6.897v-.002c-.913-3.791-2.212-8.115-6.27-11.407l-.004-.004-.004-.003c-.75-.6-1.653-1.223-2.79-1.64a8.838 8.838 0 0 0-3.087-.522c-2.225-5.715-4.177-8.827-6.167-11.872a89.894 89.894 0 0 1-.514-.798l.313-.055a26.654 26.654 0 0 1 11.74.618l.497.144c2.105.612 4.43 1.29 6.217.136.916-.59 1.493-1.555 1.88-2.549.054-.135.105-.273.152-.411Z"/><path fill="#AD563A" d="M94.766 80.353c.54-1.916.438-4.04-.737-5.632-.224-.303-.479-.58-.733-.856a10.02 10.02 0 0 1-.76-.892c-.52-.718-.823-1.548-1.127-2.38-.288-.788-.576-1.577-1.05-2.273-.906-1.313-2.368-2.143-3.801-2.896l-.173-.09c-1.379-.724-2.792-1.466-3.757-2.662-1.004-1.245-1.382-3.127-.407-4.392 1.173-1.535 4.088-1.159 4.814.618.074.178.13.369.185.559.135.457.269.914.641 1.207.776.618 2.03-.029 2.398-.936.299-.738.23-1.546.162-2.346-.016-.184-.032-.368-.043-.55-.219-3.746 1.79-7.443 4.805-9.799 3.014-2.355 6.924-3.456 10.794-3.591 0 0 1.761.489 3.328-1.422.333.203.664.41.996.617 1.199.75 2.4 1.5 3.688 2.088 1.042.475 2.133.844 3.223 1.212 1.444.488 2.886.975 4.208 1.708 1.807 1.009 3.414 2.728 3.765 4.63.1.529.1 1.076-.03 1.605-.305.058-.754.105-1.258.157-1.306.135-2.99.308-3.562.842-.573.534-.583 2.133-.591 3.34-.003.422-.005.796-.031 1.06-.02.297-.071.624-.292.825-.21.183-.512.221-.793.24-2.39.137-4.654-.753-6.898-1.635a64.839 64.839 0 0 0-1.777-.68c-.583-.21-1.296-.393-1.808-.038-.451.307-.542.941-.361 1.441.181.5.582.903.994 1.258 2.5 2.21 5.653 3.728 8.987 4.342a119.793 119.793 0 0 1-3.495 8.857c-.187.427-.371.89-.563 1.372-.835 2.102-1.804 4.54-3.724 5.65-.703.413-1.536.548-2.35.654-3.889.48-7.875.177-11.645-.85.87 4.15 2.024 12.417-.041 13.795-1.776 1.183-10.142-6.31-15.942-12 1.987.103 3.963.427 5.877.967l.498.144c2.104.612 4.429 1.289 6.217.136.915-.59 1.492-1.555 1.88-2.55.096-.242.182-.491.257-.744l.454.021a29.433 29.433 0 0 1-.422-.13Z"/><path fill="#333" d="M95.064 78.63a8.485 8.485 0 0 1-.33 1.833l.454.022a30.751 30.751 0 0 1-.423-.132 8.324 8.324 0 0 0 .3-1.723ZM94.477 81.208ZM96.22 81.888a67.208 67.208 0 0 1 5.551 2.201 54.288 54.288 0 0 1 4.23 18.835c-.867.406-1.567 1.12-1.825 2.026-.397 1.424.316 3.057 1.646 3.797 1.333.732 3.169.498 4.256-.546 1.075-1.036 2.337-4.381-1.314-5.48a56.808 56.808 0 0 0-3.315-16.85c6.267 3.273 11.581 7.329 14.367 11.312 8.251 11.798 9.048 21.247 9.048 27.93a1.368 1.368 0 0 0 2.736 0c0-7.048-.873-17.103-9.542-29.498-3.558-5.088-10.492-9.979-18.134-13.55l-.125-.278a30.52 30.52 0 0 1-7.812-1.073c.077.362.155.756.233 1.174ZM61.383 82.469a76.203 76.203 0 0 0-7.16 4.148c-7.224 4.737-13.806 10.905-17.4 18.109-3.472 6.959-5.419 11.964-6.5 15.252a44.153 44.153 0 0 0-1.056 3.676 19.814 19.814 0 0 0-.24 1.175l-.01.07-.003.022-.001.008-.001.004s0 .002 1.356.18l-1.356-.178a1.368 1.368 0 0 0 2.712.358l.006-.036c.005-.036.015-.096.03-.179.032-.168.085-.434.17-.8.172-.734.475-1.872.992-3.445 1.035-3.146 2.928-8.029 6.349-14.885 3.298-6.61 9.45-12.451 16.452-17.043a74.071 74.071 0 0 1 9.244-5.141 11.473 11.473 0 0 1-3.584-1.295ZM70.954 83.507c.34.55.703 1.12 1.089 1.712 1.857 2.842 3.64 5.674 5.673 10.768-1.322.38-2.549 1.022-3.457 1.876-2.132 2.004-2.519 4.625-2.558 6.807-.082 4.138.85 8.276 1.736 12.193.064.282.21.522.409.702.1.694.362 1.374.758 1.999.342.545.95 1.108 1.665 1.033.415-.049.774-.322.968-.637.195-.316.254-.682.272-1.054a6.385 6.385 0 0 0-.418-2.771c-.061-.188-.15-.379-.351-.462-.134-.063-.29-.057-.432-.049-.111.005-.223.009-.334.012-.846-3.759-1.605-7.378-1.534-10.941v-.003c.035-1.962.388-3.628 1.687-4.85.632-.593 1.667-1.118 2.894-1.37 1.216-.25 2.501-.207 3.606.2h.002c.747.274 1.39.7 2.029 1.21 3.315 2.693 4.45 6.236 5.342 9.94.372 1.556.715 3.11 1.025 4.668-.392.191-.724.474-.87.835-.14.337-.115.704-.078 1.074.059.541.16 1.076.433 1.569.274.493.723.921 1.302 1.096.592.177 1.305.052 1.666-.382.212-.243.28-.564.332-.874.04-.242.067-.486.082-.731.198-.288.287-.65.222-1.018a121.798 121.798 0 0 0-1.449-6.897v-.002c-.913-3.791-2.212-8.115-6.27-11.407l-.004-.004-.003-.003c-.75-.6-1.654-1.223-2.79-1.64a8.838 8.838 0 0 0-3.088-.522c-2.225-5.715-4.177-8.827-6.167-11.872a89.09 89.09 0 0 1-.514-.798 59.73 59.73 0 0 0-1.842.375c-.344.074-.688.148-1.033.218Z"/></svg>