<svg xmlns="http://www.w3.org/2000/svg" width="160" height="160" fill="none"><path fill="#FED337" d="M52.64 92.28c11.364 0 20.772-8.373 22.392-19.286H85.59c1.62 10.913 11.029 19.285 22.393 19.285 12.503 0 22.639-10.136 22.639-22.64 0-12.503-10.136-22.639-22.639-22.639-11.072 0-20.287 7.947-22.253 18.447H74.892C72.926 54.947 63.71 47 52.64 47 40.136 47 30 57.136 30 69.64c0 12.503 10.136 22.64 22.64 22.64Z"/><path fill="#FDFAEE" d="M52.638 84.732c8.799 0 15.932-6.945 15.932-15.512s-7.133-15.512-15.932-15.512-15.932 6.945-15.932 15.512 7.133 15.512 15.932 15.512ZM107.98 84.732c8.798 0 15.931-6.945 15.931-15.512s-7.133-15.512-15.931-15.512c-8.8 0-15.932 6.945-15.932 15.512s7.133 15.512 15.932 15.512Z"/><path fill="#333" d="M46.35 80.54c5.79 0 10.482-4.88 10.482-10.9 0-6.02-4.693-10.901-10.481-10.901-3.406 0-6.432 1.689-8.346 4.305-.973 2.146-1.379 4.657-1.293 6.592.064 2.939 1.058 5.793 2.55 8.032 1.866 1.783 4.355 2.872 7.089 2.872ZM113.38 70.503c1.285-.728 2.416-1.83 3.572-3.364a1.367 1.367 0 1 1 2.185 1.646c-1.285 1.707-2.682 3.121-4.41 4.099-1.742.986-3.73 1.477-6.117 1.477-2.318 0-4.203-.11-6.445-1.374l-.316-.176c-.628-.35-1.438-.8-2.163-1.32-.829-.592-1.785-1.434-2.209-2.572a1.368 1.368 0 0 1 2.564-.955c.127.341.513.784 1.237 1.302.587.42 1.24.785 1.872 1.137h.001l.003.003.354.197c1.609.907 2.906 1.022 5.102 1.022 1.99 0 3.499-.403 4.77-1.122ZM83.676 71.57a1.368 1.368 0 0 1 1.814.672c2.132 4.642 4.028 9.319 5.925 13.996l.273.674c.34.837.686 1.582 1.045 2.356.273.59.554 1.195.846 1.87.632 1.462 1.208 3.036 1.462 4.772.203 1.388-.198 2.555-1.08 3.401-.806.773-1.896 1.164-2.895 1.38-1.74.377-3.794.333-5.092.305l-.513-.01c-2.727-.036-5.628-.268-8.36-.916-.05-.012-.156-.028-.391-.064-.202-.031-.466-.072-.729-.126a4.778 4.778 0 0 1-.865-.254c-.236-.099-.756-.344-1.048-.898a1.368 1.368 0 0 1 2.186-1.597c.065.02.157.044.282.07.182.038.38.068.586.1l.047.007c.17.026.392.06.563.1 2.468.585 5.152.808 7.765.842l.576.01c1.333.026 3.02.059 4.414-.243.8-.173 1.309-.42 1.58-.68.195-.188.352-.449.267-1.032-.204-1.39-.673-2.708-1.267-4.081-.223-.517-.486-1.087-.758-1.676a62.435 62.435 0 0 1-1.156-2.608l-.267-.656c-1.902-4.692-3.777-9.316-5.882-13.9a1.368 1.368 0 0 1 .672-1.814ZM62.077 100.284a1.368 1.368 0 0 1 1.55 1.158c.324 2.249 1.76 4.307 3.709 5.842 1.957 1.541 4.255 2.411 6.052 2.44a1.369 1.369 0 0 1-.045 2.736c-2.526-.042-5.386-1.205-7.7-3.027-2.322-1.828-4.27-4.461-4.725-7.599a1.368 1.368 0 0 1 1.159-1.55Z"/></svg>