<svg xmlns="http://www.w3.org/2000/svg" width="160" height="160" fill="none"><path fill="#FDFAEE" d="m118.301 129.646 5.814-19.836-9.234-4.788-9.918-8.208-14.364-1.71-21.204 1.71-4.446 2.394 1.026 4.788-6.84-3.42-11.286-11.97-3.762-1.026L41.009 91l6.498 12.654 16.074 15.048 24.624 5.472 16.758.684 13.338 4.788Z"/><path fill="#FED337" d="M97.888 43.527c-17.32 0-20.903 13.777-20.963 14.018-.062-.244-3.648-14.018-20.962-14.018-9.227 0-20.963 7.009-20.963 24.53 0 8.622 3.742 15.056 8.385 20.078 6.289-.587 7.145 5.153 10.062 7.38 12.997 12.996 11.74 5.869 11.74 5.869s-5.498-5.992 36.195-5.29c7.577-5.783 17.468-14.018 17.468-28.036 0-17.522-11.731-24.531-20.962-24.531Z"/><path fill="#FF8A56" d="M76.924 30c.756 0 1.368.613 1.368 1.368v8.805a1.368 1.368 0 1 1-2.736 0v-8.805c0-.755.613-1.368 1.368-1.368ZM91.087 31.897c.634.41.816 1.257.406 1.892l-4.612 7.127a1.368 1.368 0 0 1-2.297-1.486l4.611-7.128a1.368 1.368 0 0 1 1.892-.405ZM62.36 33.788a1.368 1.368 0 1 1 2.298-1.486l4.611 7.127a1.368 1.368 0 1 1-2.297 1.487l-4.611-7.127Z"/><path fill="#333" fill-rule="evenodd" d="M42.75 90.915c-.064.856.24 2.072.974 3.63.735 1.56 1.822 3.297 3.092 5.093 1.982 2.803 4.325 5.635 6.326 8.053.57.689 1.112 1.344 1.61 1.956 4.157 5.102 10.554 8.069 18.51 10.419 8.155 2.408 19.293 2.87 27.156 2.87 3.36 0 6.964.873 10.057 1.925 3.103 1.056 5.786 2.325 7.333 3.188a1.368 1.368 0 1 1-1.333 2.389c-1.404-.783-3.935-1.984-6.881-2.986-2.958-1.007-6.24-1.78-9.176-1.78-7.876 0-19.363-.452-27.931-2.983-8.089-2.389-15.16-5.549-19.856-11.314-.474-.582-.998-1.215-1.556-1.889-2.007-2.426-4.444-5.37-6.493-8.268-1.312-1.856-2.5-3.74-3.333-5.506-.815-1.73-1.376-3.521-1.215-5.132l.006-.066.013-.066c.482-2.418 2.016-4.046 4.02-4.412 1.957-.358 3.974.564 5.312 2.39 2.191 2.99 5.17 6.698 8.255 9.61 1.543 1.456 3.077 2.678 4.519 3.514.575.333 1.116.593 1.622.783a6.569 6.569 0 0 1-.117-1.564c.058-1.221.491-2.485 1.496-3.453 1.009-.972 2.445-1.505 4.24-1.547 9.419-.22 13.4-1.03 16.38-1.637.33-.067.646-.131.957-.192 3.353-.658 5.98-.891 13.895.364 8.043 1.275 11.477 5.46 13.918 8.432.57.695 1.086 1.323 1.593 1.833 1.017 1.02 2.407 1.843 3.791 2.456 1.377.61 2.658.975 3.379 1.119a1.368 1.368 0 1 1-.539 2.683c-.918-.185-2.391-.61-3.949-1.301-1.551-.687-3.276-1.676-4.62-3.027-.677-.679-1.301-1.431-1.945-2.208-2.42-2.919-5.129-6.186-12.056-7.285-7.7-1.22-9.99-.96-12.94-.381-.31.06-.627.125-.956.192-3.054.62-7.196 1.462-16.845 1.688-1.287.03-2.005.397-2.404.781-.403.389-.63.938-.662 1.613-.033.685.142 1.438.479 2.092a4.037 4.037 0 0 0 .22.377c.301.459.653.778.981.944 1.191.597 3.641 1.076 6.764 1.074 3.071-.002 6.606-.469 9.883-1.602a1.368 1.368 0 0 1 .894 2.586c-3.61 1.248-7.453 1.75-10.776 1.752-3.271.002-6.232-.481-7.992-1.365a5.11 5.11 0 0 1-1.612-1.309c-1.505-.102-3.018-.701-4.45-1.531-1.692-.98-3.398-2.355-5.026-3.892-3.258-3.075-6.35-6.932-8.584-9.983-.834-1.138-1.867-1.451-2.613-1.315-.69.126-1.498.705-1.814 2.188Z" clip-rule="evenodd"/></svg>